<?xml version="1.0" encoding="UTF-8"?>
<!-- Generator: Adobe Illustrator 16.0.4, SVG Export Plug-In . SVG Version: 6.00 Build 0)  -->
<svg id="Layer_1" width="161.2" height="161.19" enable-background="new 0 0 288 288" version="1.1" viewBox="0 0 161.2 161.19" xml:space="preserve" xmlns="http://www.w3.org/2000/svg" xmlns:cc="http://creativecommons.org/ns#" xmlns:dc="http://purl.org/dc/elements/1.1/" xmlns:rdf="http://www.w3.org/1999/02/22-rdf-syntax-ns#"><metadata id="metadata22"><rdf:RDF><cc:Work rdf:about=""><dc:format>image/svg+xml</dc:format><dc:type rdf:resource="http://purl.org/dc/dcmitype/StillImage"/><dc:title/></cc:Work></rdf:RDF></metadata>

<g id="g5" transform="translate(-64.037,-57.449)">
	<path id="path3" d="m225.24 138.04c0 44.509-36.086 80.597-80.602 80.597-44.515 0-80.602-36.088-80.602-80.597 0-44.514 36.087-80.593 80.602-80.593 44.516-1e-3 80.602 36.079 80.602 80.593z" fill="#58595b"/>
</g>
<g id="g13" transform="translate(-64.037,-57.449)" fill="#fff">
	<path id="path7" d="m125.14 160.62h-18.73v7.574h17.363v7.875h-17.363v17.391h-10.446v-40.715h29.176z"/>
	<path id="path9" d="m164.24 160.62h-12.715v32.84h-10.5v-32.84h-12.715v-7.875h35.93z"/>
	<path id="path11" d="m204.16 165.59c0 1.822-0.32 3.605-0.957 5.346-0.639 1.74-1.551 3.203-2.734 4.389-1.623 1.604-3.432 2.816-5.428 3.637s-4.48 1.23-7.451 1.23h-6.535v13.262h-10.5v-40.715h17.281c2.588 0 4.771 0.223 6.549 0.67s3.35 1.117 4.717 2.01c1.641 1.076 2.893 2.451 3.76 4.129 0.864 1.677 1.298 3.69 1.298 6.042zm-10.855 0.234c0-1.146-0.311-2.133-0.93-2.961-0.621-0.828-1.34-1.404-2.16-1.732-1.094-0.438-2.16-0.678-3.199-0.723s-2.426-0.068-4.156-0.068h-1.805v12.168h3.008c1.785 0 3.258-0.109 4.416-0.328 1.156-0.217 2.127-0.654 2.912-1.309 0.674-0.582 1.162-1.277 1.463-2.088 0.3-0.808 0.451-1.795 0.451-2.959z"/>
</g>
<path id="path15" d="m141.59 60.704c0-12.837-10.026-23.244-22.391-23.244-3.619 0-7.035 0.897-10.061 2.479 0.021-0.397 0.034-0.797 0.034-1.199 0-13.897-12.413-25.163-27.724-25.163-11.736 0-21.764 6.625-25.807 15.979-2.12-1.073-4.502-1.691-7.031-1.691-8.716 0-15.78 7.161-15.78 15.994 0 2.762 0.69 5.36 1.906 7.627-7.291 2.154-12.569 8.424-12.569 15.829 0 8.724 7.323 15.867 16.634 16.564v0.069h80.605v-5e-3c12.271-0.118 22.184-10.474 22.184-23.239z" fill="#fff"/>
</svg>
