<?xml version="1.0" encoding="UTF-8"?>
<!-- Generator: Adobe Illustrator 16.0.4, SVG Export Plug-In . SVG Version: 6.00 Build 0)  -->
<svg id="Layer_1" width="49.703" height="41.022" enable-background="new 0 0 133.864 69.283" version="1.1" viewBox="0 0 49.703 41.022" xml:space="preserve" xmlns="http://www.w3.org/2000/svg" xmlns:cc="http://creativecommons.org/ns#" xmlns:dc="http://purl.org/dc/elements/1.1/" xmlns:rdf="http://www.w3.org/1999/02/22-rdf-syntax-ns#"><metadata id="metadata11"><rdf:RDF><cc:Work rdf:about=""><dc:format>image/svg+xml</dc:format><dc:type rdf:resource="http://purl.org/dc/dcmitype/StillImage"/><dc:title/></cc:Work></rdf:RDF></metadata>
<polygon id="polygon2" transform="translate(-42.142,-11.625)" points="86.604 18.229 79.074 18.229 79.074 22.622 72.947 17.052 68.029 12.581 67.095 11.625 65.958 12.581 61.04 17.052 49.58 27.471 48.915 28.074 42.142 34.231 48.355 34.231 48.915 33.722 49.58 33.119 66.993 17.288 84.879 33.547 85.072 33.723 85.631 34.231 91.845 34.231 85.593 28.548 86.595 31.167" fill="#58595b"/>
<polygon id="polygon4" transform="translate(-42.142,-11.625)" points="49.343 52.647 62.522 52.647 62.522 38.998 71.465 38.998 71.465 52.647 84.643 52.647 84.643 35.959 66.759 19.701 49.343 35.532" fill="#58595b"/>
</svg>
