<?xml version="1.0" encoding="UTF-8"?>
<!-- Generator: Adobe Illustrator 16.0.4, SVG Export Plug-In . SVG Version: 6.00 Build 0)  -->
<svg id="Layer_1" width="379.13" height="461.24" enable-background="new 0 0 612 792" version="1.1" viewBox="0 0 379.13 461.24" xml:space="preserve" xmlns="http://www.w3.org/2000/svg" xmlns:cc="http://creativecommons.org/ns#" xmlns:dc="http://purl.org/dc/elements/1.1/" xmlns:rdf="http://www.w3.org/1999/02/22-rdf-syntax-ns#"><metadata id="metadata91"><rdf:RDF><cc:Work rdf:about=""><dc:format>image/svg+xml</dc:format><dc:type rdf:resource="http://purl.org/dc/dcmitype/StillImage"/><dc:title/></cc:Work></rdf:RDF></metadata>
<g id="g74" transform="translate(-115.4 -105.37)">
	<g id="g8" fill="#ee3524">
		<path id="path2" d="m488.31 120.48c10.983 15.56 4.808 36.84 1.147 53.773l-22.255 92.141h-89.47l28.659-121.2c4.348-18.992 22.884-36.381 42.335-38.899 15.559-2.745 31.121 0.23 39.584 14.188z"/>
		<path id="path4" d="m295.48 120.48c10.983 15.56 4.803 36.84 1.144 53.773l-22.254 92.141h-89.472l28.662-121.2c4.348-18.992 22.881-36.381 42.332-38.899 15.562-2.745 31.121 0.23 39.588 14.188z"/>
		<path id="path6" d="m391.56 120.48c10.981 15.56 4.804 36.84 1.146 53.773l-22.255 92.141h-89.468l28.657-121.2c4.348-18.992 22.881-36.381 42.333-38.899 15.559-2.745 31.12 0.23 39.587 14.188z"/>
	</g>
	<polygon id="polygon10" points="165.43 344.05 254.9 344.05 240.49 403.77 151.02 403.77" fill="#ee3524"/>
	<path id="path12" d="m351.24 344.05c-4.119 19.453-9.153 39.817-13.728 59.725h-89.931l14.872-59.725z" fill="#ee3524"/>
	<path id="path14" d="m447.58 344.05c-3.992 19.687-9.15 39.817-13.729 59.725h-89.473l14.19-59.725z" fill="#ee3524"/>
	<path id="path16" d="m187.07 430.1-1.812 7.4h-2.363l-5.185 20.736h2.365l-1.864 7.401h-11.425l4.833-19.33-12.082 15.3-4.681-15.3-4.833 19.33h-11.272l1.812-7.401h2.363l5.186-20.736h-2.365l1.863-7.4h11.273l4.479 16.208 12.687-16.208z"/>
	<path id="path18" d="m216.76 430.1-3.271 11.88h-7.804l1.109-4.479h-5.088l-1.708 6.844h7.401l-1.611 6.443h-7.4l-1.861 7.448h5.283l1.11-4.479h8.606l-2.971 11.881h-25.722l1.866-7.401h2.312l5.186-20.736h-2.314l1.812-7.4h25.065z"/>
	<path id="path20" d="m244.44 458.24-1.812 7.401h-6.746c-2.867 0-4.327-0.104-4.428-2.064 0-0.504 0.151-1.156 0.552-2.669l2.419-9.614h-5.539l-3.623 14.348h-12.031l1.862-7.401h2.266l5.183-20.736h-2.264l1.811-7.4h17.418c3.271 0.101 7.701 0.251 7.701 5.034 0 0.904-0.153 1.811-0.353 2.717l-0.757 2.971c-0.905 3.02-1.861 5.637-7.046 7.046 1.512 0.202 4.531 0.605 4.531 4.028 0 1.005-0.303 2.164-0.604 3.27l-0.757 3.071h2.217zm-13.943-13.539h5.539l1.811-7.197h-5.538z"/>
	<path id="path22" d="m269.96 430.1-1.866 7.4h-2.313l-5.185 20.736h2.316l-1.864 7.401h-14.294l1.861-7.401h2.315l5.134-20.736h-2.265l1.861-7.4z"/>
	<path id="path24" d="m288.02 458.24-1.861 7.401h-14.246l1.868-7.401h2.265l5.18-20.736h-3.621l-1.411 5.687h-6.842l3.267-13.087h30.454l-3.272 13.087h-6.793l1.408-5.687h-3.524l-5.183 20.736z"/>
	<path id="path26" d="m157.67 480.44-2.87 11.477h-8.156l1.007-4.076h-5.385c-2.316 7.648-3.774 13.438-5.236 20.736h5.438l1.409-5.64h8.556l-3.268 13.039h-15.001c-2.519 0-6.896-0.052-6.896-4.884 0-0.2 0.049-0.401 0.049-0.603 0.1-1.41 0.555-3.373 1.312-6.646l2.516-9.814c1.61-6.189 2.314-8.758 3.876-10.57 2.363-2.769 5.835-2.92 9.011-3.02h13.638z"/>
	<path id="path28" d="m159.64 493.43c0.751-2.768 1.657-6.14 2.464-8.003 2.016-4.631 5.134-4.982 10.065-4.982h6.596c3.018 0.1 7.147 0.251 7.147 4.933 0 2.518-0.857 5.233-1.461 7.751l-2.769 11.325c-1.46 5.437-2.212 7.954-4.63 9.817-1.509 1.207-3.12 1.71-6.745 1.71h-6.643c-3.977-0.052-7.901-0.151-7.901-5.084 0-1.611 0.45-3.673 1.054-6.091zm11.222 15.151c0.957-3.574 1.864-7.149 2.718-10.723 0.555-2.213 2.015-8.255 2.468-10.014h-5.336c-1.509 5.082-4.127 15.148-5.285 20.736h5.435z"/>
	<path id="path30" d="m223.71 480.44-1.864 7.4h-2.212l-5.186 20.736h2.264l-1.862 7.399h-11.325l-4.884-20.739-4.932 20.739h-10.824l1.864-7.399h2.263l5.135-20.736h-2.263l1.864-7.4h11.322l4.682 21.694 5.135-21.694z"/>
	<path id="path32" d="m241.93 508.58-1.861 7.399h-14.247l1.861-7.399h2.266l5.186-20.736h-3.625l-1.408 5.685h-6.848l3.274-13.085h30.453l-3.272 13.085h-6.794l1.409-5.685h-3.523l-5.188 20.736z"/>
	<path id="path34" d="m282.26 508.58-1.812 7.399h-6.744c-2.87 0-4.331-0.102-4.43-2.064 0-0.503 0.151-1.156 0.555-2.666l2.415-9.616h-5.537l-3.623 14.347h-12.032l1.863-7.399h2.264l5.187-20.736h-2.265l1.813-7.4h17.415c3.271 0.1 7.699 0.251 7.699 5.032 0 0.906-0.149 1.813-0.352 2.717l-0.753 2.973c-0.904 3.019-1.863 5.636-7.046 7.045 1.509 0.201 4.528 0.607 4.528 4.027 0 1.006-0.303 2.165-0.605 3.271l-0.753 3.071h2.213zm-13.94-13.54h5.534l1.813-7.196h-5.537z"/>
	<path id="path36" d="m314.48 508.58-1.863 7.399h-10.973l0.904-8.757h-5.991l-3.322 8.757h-10.97l1.861-7.399h2.514l11.932-28.137h15.403l-1.965 28.137zm-15.605-7.398h4.429l1.562-14.952z"/>
	<path id="path38" d="m346.48 480.44-2.87 11.477h-8.154l1.009-4.076h-5.386c-2.316 7.648-3.775 13.438-5.236 20.736h5.436l1.409-5.64h8.559l-3.274 13.039h-14.999c-2.516 0-6.893-0.052-6.893-4.884 0-0.2 0.045-0.401 0.045-0.603 0.105-1.41 0.559-3.373 1.31-6.646l2.519-9.814c1.61-6.189 2.313-8.758 3.874-10.57 2.368-2.769 5.84-2.92 9.01-3.02h13.641z"/>
	<path id="path40" d="m364.66 508.58-1.867 7.399h-14.24l1.861-7.399h2.265l5.185-20.736h-3.625l-1.409 5.685h-6.844l3.272-13.085h30.451l-3.271 13.085h-6.795l1.41-5.685h-3.522l-5.187 20.736z"/>
	<path id="path42" d="m378.85 493.43c0.758-2.768 1.661-6.14 2.468-8.003 2.012-4.631 5.133-4.982 10.065-4.982h6.594c3.021 0.1 7.148 0.251 7.148 4.933 0 2.518-0.855 5.233-1.459 7.751l-2.769 11.325c-1.461 5.437-2.213 7.954-4.631 9.817-1.511 1.207-3.123 1.71-6.745 1.71h-6.643c-3.979-0.052-7.903-0.151-7.903-5.084 0-1.611 0.452-3.673 1.056-6.091zm11.226 15.151c0.954-3.574 1.863-7.149 2.719-10.723 0.552-2.213 2.009-8.255 2.465-10.014h-5.336c-1.51 5.082-4.127 15.148-5.285 20.736h5.437z"/>
	<path id="path44" d="m433.26 508.58-1.812 7.399h-6.747c-2.866 0-4.327-0.102-4.429-2.064 0-0.503 0.153-1.156 0.554-2.666l2.418-9.616h-5.536l-3.629 14.347h-12.028l1.862-7.399h2.264l5.185-20.736h-2.264l1.812-7.4h17.415c3.274 0.1 7.702 0.251 7.702 5.032 0 0.906-0.15 1.813-0.352 2.717l-0.756 2.973c-0.901 3.019-1.863 5.636-7.043 7.045 1.509 0.201 4.528 0.607 4.528 4.027 0 1.006-0.303 2.165-0.606 3.271l-0.755 3.071h2.217zm-13.946-13.54h5.538l1.811-7.196h-5.535z"/>
	<path id="path46" d="m467.64 480.44-2.615 10.47h-8.559l0.758-3.069h-5.538l-1.663 6.642h6.497c3.323 0.051 7.147 0.151 7.147 4.682 0 1.36-0.302 2.619-0.807 4.73l-1.36 5.237c-0.452 1.711-1.558 3.574-2.566 4.529-2.414 2.315-5.483 2.315-7.802 2.315h-15.603l2.666-10.772h9.161l-0.857 3.373h5.54l1.812-7.149h-6.896c-2.769-0.05-6.745-0.05-6.745-4.729 0-1.007 0.203-1.965 0.404-2.919l1.405-5.688c0.504-1.712 1.009-3.424 2.42-4.933 2.414-2.618 5.384-2.669 7.7-2.718h15.501z"/>
	<path id="path48" d="m156.22 530.79-1.861 7.399h-2.214l-5.186 20.738h2.266l-1.861 7.398h-11.327l-4.883-20.739-4.933 20.739h-10.821l1.861-7.398h2.265l5.135-20.738h-2.265l1.863-7.399h11.326l4.681 21.694 5.134-21.694z"/>
	<path id="path50" d="m175.25 530.79-1.867 7.399h-2.313l-5.184 20.738h2.315l-1.864 7.398h-14.294l1.862-7.398h2.316l5.134-20.738h-2.265l1.862-7.399z"/>
	<path id="path52" d="m200.81 558.92-1.864 7.398h-10.972l0.905-8.758h-5.987l-3.324 8.758h-10.972l1.859-7.398h2.52l11.927-28.138h15.403l-1.964 28.138zm-15.608-7.4h4.434l1.559-14.951z"/>
	<path id="path54" d="m233.42 530.79-2.62 10.419h-8.707l0.706-3.02h-5.337c-2.115 7.198-3.876 14.295-5.236 20.738h5.438l1.66-6.645h-2.818l1.862-7.351h11.879l-5.336 21.394h-16.356c-2.166-0.05-6.192-0.202-6.192-4.883 0-1.459 0.856-5.084 1.308-6.793l2.87-12.183c0.756-2.869 1.81-6.594 3.372-8.657 2.063-2.77 4.832-2.921 6.998-3.021h16.509z"/>
	<path id="path56" d="m259.48 558.92-1.861 7.398h-10.974l0.907-8.758h-5.99l-3.322 8.758h-10.974l1.864-7.398h2.515l11.931-28.138h15.403l-1.962 28.138zm-15.602-7.4h4.428l1.559-14.951z"/>
	<path id="path58" d="m291.24 558.92-1.811 7.398h-6.744c-2.87 0-4.331-0.101-4.43-2.064 0-0.501 0.151-1.156 0.552-2.666l2.417-9.615h-5.537l-3.625 14.346h-12.029l1.861-7.398h2.267l5.183-20.738h-2.265l1.813-7.399h17.415c3.271 0.1 7.701 0.251 7.701 5.032 0 0.906-0.149 1.813-0.349 2.717l-0.758 2.973c-0.905 3.02-1.861 5.637-7.046 7.047 1.511 0.2 4.53 0.605 4.53 4.026 0 1.007-0.303 2.165-0.605 3.271l-0.754 3.072h2.214zm-13.942-13.54h5.537l1.813-7.198h-5.539z"/>
	<path id="path60" d="m323.46 558.92-1.861 7.398h-10.973l0.904-8.758h-5.991l-3.322 8.758h-10.974l1.861-7.398h2.522l11.927-28.138h15.402l-1.964 28.138zm-15.605-7.4h4.429l1.562-14.951z"/>
	<g id="g72">
		<path id="path62" d="m182.49 274.64h28.396l1.908 29.462 0.167-1e-3 16.173-29.5h28.068l-14.875 60.45h-21.164l6.1-25.02 0.613-2.898-16.477 27.918h-11.898l-2.746-32.953-7.019 32.953h-21.661z"/>
		<path id="path64" d="m263.27 274.64h50.037l-4.104 17.744-27.904 0.055-1.894 8.439h26.587l-2.945 12.357h-26.237l-1.638 6.98 26.985 0.063-3.532 14.772h-49.389z"/>
		<path id="path66" d="m338.63 292.95h7.017c5.185 0 5.922 3.021 5.185 6.865-0.761 3.966-3.812 5.341-5.185 5.341h-9.762zm-33.256 42.106h23.498l4.57-23.797-1.832 1.22 8.544 22.578h25.628l-11.595-23.188c5.8-1.221 20.138-1.22 20.749-20.137 0.257-7.994-2.037-17.437-24.486-17.085h-30.661z"/>
		<path id="path68" d="m385.59 274.62 22.816 0.022-14.553 60.411h-22.89z"/>
		<path id="path70" d="m421.31 296.61h-14.034l5.438-21.967 52.155 0.13-5.066 21.837h-15.665l-8.903 39.053h-22.267z"/>
	</g>
</g>
<g id="g84" transform="translate(-115.4 -105.37)">
	<path id="path76" d="m346.68 543.82-1.18 4.692h-1.469l-3.287 13.151h3.16l1.084-3.927h5.459l-2.299 8.619h-16.184l1.182-4.692h1.469l3.256-13.151h-1.438l1.182-4.692z"/>
	<path id="path78" d="m363.7 561.66-1.182 4.692h-9.033l1.181-4.692h1.437l3.288-13.151h-2.298l-0.895 3.606h-4.342l2.076-8.299h19.312l-2.074 8.299h-4.31l0.894-3.606h-2.234l-3.288 13.151z"/>
	<path id="path80" d="m376.44 543.82h10.374c2.043 0 2.81 0.063 3.543 0.446 1.437 0.734 1.437 2.203 1.437 2.649 0 1.054-0.127 1.66-1.021 5.459l-1.5 5.969c-1.628 6.672-2.682 7.917-7.565 8.013h-10.886l1.148-4.692h1.437l3.288-13.151h-1.437zm2.937 17.844h3.032c0.894-3.097 2.617-10.023 3.192-13.151h-2.937z"/>
	<path id="path82" d="m392.46 561.88c1.309 0 2.362 1.053 2.362 2.362s-1.054 2.362-2.362 2.362-2.362-1.054-2.362-2.362c0-1.309 1.053-2.362 2.362-2.362z"/>
</g>
</svg>
