<?xml version="1.0" encoding="UTF-8"?>
<!-- Generator: Adobe Illustrator 16.0.4, SVG Export Plug-In . SVG Version: 6.00 Build 0)  -->
<svg id="Layer_1" width="281.78" height="102.33" enable-background="new 0 0 321 165" version="1.1" viewBox="0 0 281.78 102.33" xml:space="preserve" xmlns="http://www.w3.org/2000/svg" xmlns:cc="http://creativecommons.org/ns#" xmlns:dc="http://purl.org/dc/elements/1.1/" xmlns:rdf="http://www.w3.org/1999/02/22-rdf-syntax-ns#"><metadata id="metadata69"><rdf:RDF><cc:Work rdf:about=""><dc:format>image/svg+xml</dc:format><dc:type rdf:resource="http://purl.org/dc/dcmitype/StillImage"/><dc:title/></cc:Work></rdf:RDF></metadata>
<g id="g24" transform="translate(-17.615,-37.994)" fill="#fff">
	<path id="path2" d="m30.016 45.663c0-1.955-0.051-3.602-0.206-5.146h-7.976c-1.543 0-1.955 0.463-2.058 1.698l-0.206 4.064h-1.595c0-2.778-0.103-5.608-0.36-8.284 3.705 0 7.409 0.154 11.114 0.154h7.46c1.853 0 3.705-0.051 5.557-0.103 1.852 0 3.705-0.052 5.557-0.052-0.257 2.676-0.36 5.506-0.36 8.284h-1.595l-0.206-4.064c-0.103-1.235-0.514-1.698-2.058-1.698h-7.974c-0.154 1.544-0.206 3.19-0.206 5.146v21.765c0 1.955 0.103 3.293 0.463 3.858 0.309 0.515 0.926 0.721 2.161 0.771l2.47 0.154v1.544c-2.676-0.103-5.094-0.154-7.461-0.154-2.521 0-4.939 0.052-7.615 0.154v-1.544l2.47-0.154c1.235-0.051 1.852-0.257 2.161-0.771 0.36-0.565 0.463-1.903 0.463-3.858z"/>
	<path id="path4" d="m79.81 68.55c0 1.6 0.084 2.694 0.378 3.157 0.253 0.421 0.758 0.59 1.769 0.632l2.021 0.126v1.263c-2.189-0.084-4.167-0.126-6.104-0.126-2.062 0-4.042 0.042-6.23 0.126v-1.263l2.021-0.126c1.01-0.042 1.515-0.211 1.768-0.632 0.294-0.463 0.379-1.558 0.379-3.157v-9.389c-0.505-0.042-1.642-0.084-3.494-0.084h-9.852c-1.852 0-2.989 0.042-3.494 0.084v9.389c0 1.6 0.084 2.694 0.379 3.157 0.253 0.421 0.758 0.59 1.768 0.632l2.021 0.126v1.263c-2.189-0.084-4.168-0.126-6.104-0.126-2.063 0-4.042 0.042-6.23 0.126v-1.263l2.021-0.126c1.011-0.042 1.516-0.211 1.769-0.632 0.294-0.463 0.378-1.558 0.378-3.157v-18.903c0-1.6-0.084-2.694-0.378-3.157-0.253-0.422-0.758-0.59-1.769-0.632l-2.021-0.126v-1.264c2.189 0.085 4.167 0.127 6.23 0.127 1.937 0 3.916-0.042 6.104-0.127v1.264l-2.021 0.126c-1.01 0.042-1.515 0.21-1.768 0.632-0.294 0.463-0.379 1.558-0.379 3.157v7.493c0.505 0.042 1.642 0.084 3.494 0.084h9.852c1.852 0 2.989-0.042 3.494-0.084v-7.493c0-1.6-0.084-2.694-0.379-3.157-0.253-0.422-0.758-0.59-1.768-0.632l-2.021-0.126v-1.264c2.189 0.085 4.168 0.127 6.23 0.127 1.937 0 3.916-0.042 6.104-0.127v1.264l-2.021 0.126c-1.011 0.042-1.516 0.21-1.769 0.632-0.294 0.463-0.378 1.558-0.378 3.157z"/>
	<path id="path6" d="m95.343 68.55c0 1.6 0.084 2.694 0.379 3.157 0.253 0.421 0.758 0.59 1.768 0.632l2.021 0.126v1.263c-2.189-0.084-4.168-0.126-6.104-0.126-2.063 0-4.042 0.042-6.23 0.126v-1.263l2.021-0.126c1.011-0.042 1.516-0.211 1.768-0.632 0.295-0.463 0.379-1.558 0.379-3.157v-18.903c0-1.6-0.084-2.694-0.379-3.157-0.252-0.422-0.757-0.59-1.768-0.632l-2.021-0.126v-1.264c2.189 0.085 4.167 0.127 6.23 0.127 1.937 0 3.916-0.042 6.104-0.127v1.264l-2.021 0.126c-1.01 0.042-1.515 0.21-1.768 0.632-0.294 0.463-0.379 1.558-0.379 3.157z"/>
	<path id="path8" d="m110.88 68.55c0 1.6 0.084 2.694 0.379 3.157 0.253 0.421 0.758 0.59 1.768 0.632l2.021 0.126v1.263c-2.189-0.084-4.168-0.126-6.104-0.126-2.063 0-4.042 0.042-6.23 0.126v-1.263l2.021-0.126c1.011-0.042 1.516-0.211 1.768-0.632 0.295-0.463 0.379-1.558 0.379-3.157v-18.903c0-1.6-0.084-2.694-0.379-3.157-0.252-0.422-0.757-0.548-1.768-0.632l-1.726-0.126v-1.264c2.231 0.042 4.673 0.127 7.157 0.127 2.483 0 4.925-0.085 7.367-0.127h0.379c6.441 0 8.125 3.326 8.125 6.315 0 4.589-4.125 7.325-8.209 8.125l9.557 12.461c0.631 0.842 1.558 1.011 2.568 1.095v1.263c-1.094-0.042-2.062-0.126-3.031-0.126s-1.895 0.084-2.863 0.126c-0.547-0.8-1.179-1.516-1.726-2.273l-7.747-10.398c-0.673-0.926-1.473-1.726-2.189-2.609l0.252-0.506c0.379 0.042 0.716 0.042 1.137 0.042 0.842 0 1.684-0.084 2.568-0.21 2.947-0.505 5.473-2.778 5.473-5.894 0-4.547-3.368-5.811-6.651-5.811-1.895 0-3.116 0.211-4.294 0.506v21.976z"/>
	<path id="path10" d="m140.6 50.742c0-1.601-0.042-2.947-0.168-4.21h-6.525c-1.263 0-1.6 0.379-1.684 1.389l-0.168 3.326h-1.305c0-2.273-0.084-4.589-0.294-6.778 3.031 0 6.062 0.127 9.093 0.127h6.104c1.516 0 3.031-0.042 4.547-0.085 1.515 0 3.031-0.042 4.546-0.042-0.21 2.189-0.294 4.505-0.294 6.778h-1.305l-0.168-3.326c-0.084-1.01-0.421-1.389-1.684-1.389h-6.525c-0.126 1.263-0.168 2.609-0.168 4.21v17.808c0 1.6 0.084 2.694 0.379 3.157 0.253 0.421 0.758 0.59 1.769 0.632l2.021 0.126v1.263c-2.189-0.084-4.168-0.126-6.104-0.126-2.062 0-4.042 0.042-6.23 0.126v-1.263l2.021-0.126c1.011-0.042 1.516-0.211 1.769-0.632 0.294-0.463 0.379-1.558 0.379-3.157v-17.808z"/>
	<path id="path12" d="m172.14 59.246 4.336-6.862c1.685-2.652 3.158-5.305 4.547-7.999h3.368v0.632c-3.536 4.083-8.63 11.198-10.356 14.945-0.505 1.094-0.589 2.146-0.589 3.157v5.431c0 1.6 0.084 2.694 0.379 3.157 0.252 0.421 0.757 0.59 1.768 0.632l2.021 0.126v1.263c-2.188-0.084-4.167-0.126-6.104-0.126-2.063 0-4.042 0.042-6.23 0.126v-1.263l2.021-0.126c1.01-0.042 1.516-0.211 1.768-0.632 0.295-0.463 0.379-1.558 0.379-3.157v-5.979c0-0.673-0.126-1.263-0.379-1.684l-5.22-9.094c-2.189-3.788-4.336-5.347-5.389-5.473l-1.221-0.126v-1.221l4.841-1.011c0.084 0 0.126-0.042 0.21-0.042 0.758 0 1.305 0.8 1.979 1.6 0.715 0.884 1.305 1.727 1.852 2.736z"/>
	<path id="path14" d="m183.34 64.55-0.21-0.21 1.137-2.82h11.072l0.21 0.21-1.263 2.82z"/>
	<path id="path16" d="m208.9 67.428c0 1.955 0.104 3.293 0.464 3.858 0.309 0.515 0.926 0.721 2.161 0.771l2.47 0.154v1.544c-2.676-0.103-5.095-0.154-7.461-0.154-2.521 0-4.939 0.052-7.615 0.154v-1.544l2.47-0.154c1.235-0.051 1.853-0.257 2.161-0.771 0.36-0.565 0.463-1.903 0.463-3.858v-23.103c0-1.955-0.103-3.293-0.463-3.859-0.309-0.515-0.926-0.72-2.161-0.771l-2.47-0.154v-1.544c1.44 0 2.882 0.052 4.322 0.104 1.44 0 2.933 0.051 4.373 0.051 3.447 0 8.182-0.154 11.114-0.154 2.315 0 4.631 0.052 6.637 0.154-0.565 2.265-0.822 5.197-0.822 7.821h-1.802v-3.345c0-0.669-0.051-1.234-0.463-1.389-2.727-1.029-6.792-1.081-9.056-1.081-1.389 0-2.881 0.052-4.322 0.412v13.737c1.646 0.104 3.499 0.154 5.969 0.154 3.139 0 4.889-0.205 5.454-0.565 0.258-0.206 0.36-0.669 0.412-1.338l0.257-2.676h1.544c-0.052 2.109-0.154 4.064-0.154 5.969 0 1.903 0.103 3.858 0.154 5.711h-1.544l-0.257-3.035c-0.052-0.669-0.154-1.133-0.412-1.287-0.565-0.411-2.315-0.617-5.454-0.617-2.47 0-4.373 0-5.969 0.154z"/>
	<path id="path18" d="m237.13 68.55c0 1.6 0.084 2.694 0.379 3.157 0.252 0.421 0.758 0.59 1.768 0.632l2.021 0.126v1.263c-2.188-0.084-4.167-0.126-6.104-0.126-2.063 0-4.042 0.042-6.231 0.126v-1.263l2.021-0.126c1.01-0.042 1.516-0.211 1.768-0.632 0.295-0.463 0.379-1.558 0.379-3.157v-18.903c0-1.6-0.084-2.694-0.379-3.157-0.252-0.422-0.758-0.59-1.768-0.632l-2.021-0.126v-1.264c2.189 0.085 4.168 0.127 6.231 0.127 1.937 0 3.915-0.042 6.104-0.127v1.264l-2.021 0.126c-1.01 0.042-1.516 0.21-1.768 0.632-0.295 0.463-0.379 1.558-0.379 3.157z"/>
	<path id="path20" d="m259.78 68.508 7.704-19.913c0.253-0.632 0.379-1.137 0.379-1.516 0-0.968-0.674-1.179-1.474-1.221l-2.188-0.126v-1.264c1.516 0.042 2.988 0.127 4.546 0.127s3.031-0.085 4.547-0.127v1.264l-1.263 0.126c-0.884 0.084-1.432 1.011-2.273 3.031l-7.325 17.724c-1.011 2.399-1.937 4.799-2.694 7.367h-2.104c-0.674-2.483-1.601-4.884-2.442-6.946l-7.914-19.45c-0.548-1.347-1.137-1.684-1.853-1.726l-1.516-0.126v-1.264c1.853 0.042 3.705 0.127 5.599 0.127 1.895 0 3.747-0.085 5.6-0.127v1.264l-2.357 0.126c-0.674 0.042-1.348 0.21-1.348 0.842 0 0.126 0 0.295 0.085 0.463z"/>
	<path id="path22" d="m280.41 49.647c0-1.6-0.084-2.694-0.379-3.157-0.252-0.422-0.758-0.59-1.768-0.632l-2.021-0.126v-1.264c1.179 0 2.358 0.042 3.537 0.085 1.179 0 2.399 0.042 3.578 0.042 3.662 0 7.535-0.127 9.936-0.127 1.895 0 3.789 0.042 5.431 0.127-0.463 1.852-0.674 4.252-0.674 6.398h-1.474v-2.736c0-0.547-0.042-1.01-0.379-1.137-2.231-0.842-5.557-0.884-8.251-0.884-1.137 0-2.357 0.042-3.536 0.337v11.24c1.347 0.084 2.862 0.126 4.883 0.126 2.568 0 4-0.168 4.463-0.463 0.21-0.168 0.295-0.547 0.337-1.095l0.21-2.188h1.264c-0.042 1.726-0.127 3.325-0.127 4.883s0.085 3.157 0.127 4.673h-1.264l-0.21-2.483c-0.042-0.547-0.127-0.926-0.337-1.053-0.463-0.337-1.895-0.505-4.463-0.505-2.021 0-3.578 0-4.883 0.126v11.788c1.179 0.295 2.399 0.337 3.536 0.337 3.452 0 7.746-0.127 8.504-0.548 0.632-0.337 1.179-2.188 1.474-4.715h1.474c-0.422 2.021-0.674 4.631-0.674 6.904-1.6 0.042-4.294 0.126-6.988 0.126h-1.306c-3.241-0.042-6.567-0.126-9.178-0.126-1.6 0-2.988 0.084-4.504 0.126v-1.263l1.516-0.126c1.01-0.085 1.516-0.211 1.768-0.632 0.295-0.463 0.379-1.558 0.379-3.157v-18.901z"/>
</g>
<line id="line26" x1="2.097" x2="281.58" y1="51.404" y2="51.404" fill="#fff" stroke="#fff" stroke-miterlimit="10" stroke-width="1.9551"/>
<g id="g62" transform="translate(-17.615,-37.994)" fill="#fff">
	<path id="path28" d="m23.05 130.08 0.173-1.048c1.46-0.072 2.3-0.133 2.519-0.181s0.385-0.126 0.499-0.234c0.113-0.108 0.239-0.367 0.377-0.776 0.389-1.155 0.775-2.659 1.158-4.513 0.258-1.203 0.399-2.1 0.425-2.69 0.028-0.638-0.124-1.678-0.458-3.123-0.517-2.213-1.045-4.085-1.586-5.613s-1.024-2.632-1.452-3.312-0.864-1.154-1.31-1.426c-0.446-0.271-0.885-0.407-1.319-0.407-0.481 0-1.042 0.133-1.68 0.398l-0.068-0.903c0.992-0.627 1.53-0.97 1.617-1.03 0.274-0.192 0.729-0.549 1.367-1.065 0.746 0.023 1.406 0.205 1.981 0.541 0.576 0.338 1.146 0.97 1.714 1.896 0.567 0.929 1.182 2.497 1.843 4.707 0.661 2.211 1.23 4.604 1.706 7.182 0.995-2.071 2.045-3.909 3.152-5.511 0.722-1.071 1.567-2.204 2.535-3.396 0.969-1.191 1.897-2.17 2.786-2.936 0.889-0.765 1.715-1.327 2.477-1.689 0.53-0.253 1.108-0.421 1.739-0.505l-0.332 2.601c-0.996 0.169-1.993 0.584-2.991 1.247-0.999 0.662-2.149 1.801-3.449 3.414-1.656 2.048-2.941 3.956-3.856 5.727-0.917 1.77-1.637 3.917-2.164 6.441-0.527 2.525-0.797 3.914-0.808 4.166-0.018 0.397 0.104 0.638 0.366 0.722 0.178 0.06 1.149 0.15 2.915 0.271l-0.208 1.048c-1.863-0.084-3.457-0.127-4.782-0.127-1.29-3e-3 -2.918 0.04-4.886 0.124z"/>
	<path id="path30" d="m49.481 125.99 0.204 0.704c-1.44 1.265-2.853 2.217-4.236 2.854-1.383 0.639-2.544 0.957-3.484 0.957-0.614 0-1.255-0.158-1.921-0.478s-1.181-0.816-1.542-1.491c-0.362-0.674-0.516-1.632-0.461-2.872 0.061-1.36 0.356-2.864 0.886-4.508 0.53-1.645 1.043-2.875 1.536-3.694 0.494-0.819 1.152-1.548 1.976-2.186 1.137-0.903 2.337-1.645 3.603-2.223 0.885-0.41 1.732-0.614 2.539-0.614 0.903 0 1.636 0.24 2.2 0.723 0.562 0.481 0.824 1.156 0.785 2.023-0.027 0.626-0.184 1.247-0.469 1.86-0.286 0.614-0.667 1.145-1.144 1.59-0.665 0.615-1.573 1.187-2.728 1.717-1.153 0.53-2.351 0.97-3.592 1.318l-2.37 0.561c-0.283 1.229-0.439 2.192-0.471 2.891-0.052 1.181 0.171 2.065 0.667 2.655 0.497 0.591 1.136 0.886 1.917 0.886 0.697 0 1.486-0.172 2.366-0.515 0.883-0.342 2.129-1.062 3.739-2.158zm-8.05-4.642c1.555-0.29 2.897-0.708 4.03-1.256 1.133-0.549 1.966-1.217 2.501-2.006 0.534-0.788 0.817-1.545 0.849-2.268 0.027-0.613-0.105-1.084-0.397-1.408-0.293-0.326-0.687-0.488-1.181-0.488-0.698 0-1.416 0.208-2.15 0.623-0.735 0.416-1.338 1.038-1.808 1.87-0.47 0.831-1.085 2.475-1.844 4.933z"/>
	<path id="path32" d="m66.85 126.23 0.164 0.776-2.802 2.096c-0.882 0.614-1.581 1.03-2.096 1.247-0.173 0.084-0.331 0.125-0.476 0.125-0.217 0-0.422-0.113-0.618-0.342-0.194-0.229-0.284-0.513-0.269-0.85 0.057-1.276 0.548-3.402 1.475-6.378l-0.125-0.054c-0.96 1.276-1.711 2.216-2.257 2.818-0.989 1.12-1.986 2.09-2.992 2.908-1.006 0.82-1.914 1.409-2.725 1.771-0.233 0.096-0.452 0.144-0.657 0.144-0.325 0-0.577-0.156-0.757-0.47-0.303-0.506-0.427-1.36-0.374-2.564 0.068-1.542 0.428-3.349 1.079-5.421 0.652-2.071 1.397-3.871 2.235-5.401 0.42-0.771 0.997-1.427 1.732-1.97 1.207-0.891 2.289-1.511 3.243-1.86 0.649-0.229 1.359-0.343 2.129-0.343 0.53 0 1.024 0.042 1.485 0.125 0.46 0.085 1.045 0.26 1.756 0.525l1.187-0.687 0.383 0.324c-0.888 2.663-1.68 5.18-2.375 7.553-0.424 1.421-0.718 2.486-0.882 3.196-0.278 1.121-0.506 2.187-0.684 3.198-0.032 0.193-0.052 0.355-0.058 0.488-0.011 0.241 0.03 0.427 0.12 0.56 0.082 0.085 0.194 0.127 0.338 0.127 0.192 0 0.446-0.078 0.76-0.235 0.316-0.155 1.003-0.624 2.061-1.406zm-2.497-11.347c-0.436-0.217-0.898-0.375-1.388-0.478-0.489-0.103-1.005-0.154-1.547-0.154-1.048 0-1.85 0.175-2.408 0.523-0.26 0.157-0.555 0.555-0.884 1.192-0.671 1.277-1.264 2.704-1.779 4.282-0.807 2.457-1.252 4.619-1.334 6.485-0.014 0.325 2e-3 0.567 0.049 0.724 0.047 0.155 0.124 0.273 0.229 0.352 0.104 0.078 0.206 0.117 0.301 0.117 0.229 0 0.585-0.156 1.069-0.469 0.956-0.639 1.972-1.555 3.048-2.747 1.077-1.192 1.98-2.547 2.709-4.064s1.374-3.438 1.935-5.763z"/>
	<path id="path34" d="m70.112 130.47-0.314-0.252c0.693-2.035 1.224-3.723 1.597-5.059 0.718-2.614 1.272-4.932 1.662-6.955 0.221-1.169 0.34-1.976 0.36-2.422 0.014-0.312-0.024-0.535-0.115-0.668-0.055-0.097-0.15-0.145-0.283-0.145-0.409 0-1.453 0.59-3.131 1.771l-0.407-0.596c1.686-1.35 3.15-2.35 4.396-2.999 0.863-0.458 1.5-0.687 1.909-0.687 0.217 0 0.389 0.071 0.514 0.216 0.126 0.145 0.183 0.368 0.169 0.669-0.014 0.325-0.125 0.916-0.331 1.771-0.332 1.518-0.765 3.265-1.298 5.239 1.376-2.229 2.748-4.125 4.118-5.691 0.863-0.987 1.516-1.607 1.961-1.86 0.445-0.254 0.873-0.379 1.282-0.379 0.217 0 0.455 0.066 0.713 0.198-0.25 1.06-0.515 2.391-0.791 3.992l-0.492 0.108c-0.34-0.48-0.732-0.723-1.179-0.723-0.409 0-0.868 0.169-1.377 0.506-0.818 0.53-1.681 1.437-2.586 2.72-0.907 1.282-1.659 2.833-2.257 4.651-0.333 0.988-0.873 2.976-1.619 5.962-1.092 0.242-1.926 0.453-2.501 0.633z"/>
	<path id="path36" d="m82.83 129.66c0.332-1.239 0.56-2.168 0.684-2.782 0.124-0.613 0.227-1.312 0.31-2.096h0.903l-0.153 3.035c0.557 0.471 1.079 0.807 1.563 1.012 0.639 0.266 1.289 0.398 1.951 0.398 0.808 0 1.55-0.175 2.228-0.524s1.203-0.84 1.574-1.473c0.372-0.633 0.573-1.321 0.606-2.068 0.023-0.53-0.062-0.987-0.254-1.373-0.194-0.385-0.451-0.653-0.77-0.804-0.318-0.151-1.004-0.305-2.057-0.462-1.507-0.228-2.532-0.48-3.074-0.758s-0.96-0.701-1.253-1.274c-0.294-0.571-0.425-1.225-0.393-1.96 0.03-0.687 0.194-1.318 0.491-1.896 0.296-0.578 0.723-1.117 1.282-1.617 0.558-0.5 1.208-0.967 1.95-1.4s1.385-0.734 1.928-0.903 1.17-0.252 1.88-0.252c0.699 0 1.349 0.074 1.951 0.225 0.601 0.151 1.16 0.383 1.676 0.696-0.194 0.566-0.336 1.066-0.428 1.499-0.06 0.266-0.202 1.169-0.427 2.71h-0.848c0.032-0.987 0.046-1.728 0.043-2.222-0.4-0.47-0.882-0.819-1.444-1.048s-1.198-0.344-1.909-0.344c-1.132 0-2.06 0.326-2.78 0.976-0.721 0.65-1.103 1.44-1.144 2.367-0.032 0.734 0.171 1.318 0.609 1.752 0.426 0.445 1.333 0.774 2.721 0.985s2.312 0.406 2.774 0.587c0.687 0.277 1.199 0.675 1.537 1.192 0.338 0.519 0.492 1.138 0.46 1.86-0.038 0.855-0.269 1.669-0.695 2.439s-1.053 1.49-1.884 2.159c-0.831 0.668-1.716 1.23-2.659 1.688-0.941 0.458-1.96 0.687-3.057 0.687-0.662 0-1.285-0.075-1.869-0.226-0.582-0.149-1.256-0.411-2.023-0.785z"/>
	<path id="path38" d="m106.98 124.89c0.065-1.48 0.284-2.869 0.654-4.164 0.371-1.294 0.854-2.417 1.45-3.369 0.597-0.951 1.314-1.792 2.153-2.521s1.774-1.312 2.805-1.752 2.017-0.659 2.956-0.659c0.867 0 1.684 0.188 2.45 0.568s1.348 0.97 1.746 1.771 0.566 1.9 0.504 3.297c-0.082 1.855-0.531 3.71-1.348 5.564-0.655 1.47-1.382 2.659-2.181 3.568-0.799 0.91-1.812 1.687-3.039 2.33-1.228 0.645-2.437 0.967-3.629 0.967-1.445 0-2.581-0.466-3.407-1.399-0.825-0.934-1.197-2.334-1.114-4.201zm2.884-0.253c-0.051 1.156 0.036 2.036 0.262 2.639 0.226 0.602 0.589 1.06 1.087 1.372 0.498 0.313 1.102 0.471 1.813 0.471 0.783 0 1.469-0.205 2.06-0.615 0.59-0.409 1.19-1.161 1.798-2.258 0.609-1.096 1.072-2.388 1.391-3.875 0.319-1.488 0.504-2.822 0.556-4.002 0.067-1.506-0.159-2.653-0.679-3.441-0.519-0.789-1.321-1.184-2.405-1.184-1.734 0-3.114 1.036-4.138 3.107-1.026 2.071-1.608 4.667-1.745 7.786z"/>
	<path id="path40" d="m124.49 116.15 0.198-0.813c1.505-0.542 2.587-1.018 3.243-1.428 0.732-2.938 1.141-4.54 1.225-4.806 0.182-0.565 0.479-1.09 0.892-1.571s1.233-1.186 2.46-2.113c1.227-0.928 2.167-1.536 2.817-1.826 0.442-0.191 0.94-0.288 1.494-0.288 0.747 0 1.523 0.163 2.327 0.487-0.539 1.301-0.926 2.301-1.162 2.999l-0.403 0.127c-0.282-0.421-0.65-0.753-1.104-0.994-0.454-0.24-0.933-0.361-1.438-0.361-0.566 0-1.05 0.127-1.453 0.38s-0.734 0.603-0.995 1.048c-0.261 0.446-0.559 1.337-0.896 2.674-0.479 1.843-0.852 3.342-1.12 4.499 1.531-0.036 2.418-0.066 2.66-0.091 0.412-0.048 0.837-0.139 1.276-0.271l0.154 0.217c-0.312 0.783-0.555 1.494-0.727 2.133-0.672-0.036-1.274-0.055-1.805-0.055-0.493 0-1.157 0.012-1.989 0.036l-2.595 10.081c-0.942 3.589-1.726 6.086-2.354 7.488-0.628 1.403-1.433 2.641-2.413 3.713-0.981 1.071-1.995 1.873-3.042 2.402-0.654 0.338-1.287 0.507-1.901 0.507-0.386 0-0.809-0.115-1.268-0.344 0.462-1.205 0.789-2.192 0.98-2.963l0.456-0.108c0.5 0.674 1.105 1.012 1.816 1.012 0.421 0 0.823-0.103 1.206-0.308 0.382-0.204 0.765-0.565 1.149-1.084 0.384-0.518 0.781-1.451 1.189-2.8 0.703-2.277 1.427-5.144 2.169-8.6l1.916-8.997c-0.71-0.012-1.186-0.018-1.427-0.018-0.419 0-0.931 0.012-1.535 0.036z"/>
	<path id="path42" d="m143.37 130.08 0.167-0.939 1.91-0.704c0.304-0.856 0.632-2.029 0.987-3.523 0.178-0.746 0.75-3.325 1.715-7.732 0.965-4.408 1.63-7.601 1.995-9.576 0.048-0.275 0.078-0.535 0.088-0.776 0.018-0.408-0.104-0.704-0.367-0.885s-1.205-0.319-2.827-0.415l0.193-1.084c0.421 0.012 1.323 0.042 2.705 0.09 2.105 0.06 3.242 0.09 3.411 0.09l7.792-0.126c1.145 0 2.161 0.03 3.049 0.09-0.317 1.192-0.639 3.023-0.965 5.492h-0.903c-0.029-1.781-0.062-2.817-0.098-3.107-0.028-0.192-0.075-0.334-0.144-0.424s-0.18-0.159-0.334-0.208c-0.249-0.096-0.721-0.175-1.417-0.235-1.116-0.096-2.192-0.145-3.228-0.145-1.529 0-2.706 0.055-3.529 0.163-0.605 2.253-1.372 5.564-2.301 9.937 1.275 0.036 2.329 0.055 3.16 0.055 1.662 0 3.689-0.079 6.081-0.235l0.118 0.181-0.779 1.698c-0.133 0-1.449-0.042-3.952-0.127-0.793-0.036-1.629-0.055-2.508-0.055-0.759 0-1.579 0.013-2.458 0.037l-1.778 8.347c-0.17 0.855-0.306 1.607-0.407 2.259 1.74 0.156 3.344 0.234 4.814 0.234 2.927 0 4.835-0.12 5.725-0.361 0.292-0.072 0.516-0.229 0.671-0.47 0.155-0.24 0.563-1.433 1.224-3.577h1.048c-0.265 1.084-0.458 1.921-0.581 2.511-0.028 0.108-0.222 1.229-0.582 3.36-0.932 0.108-1.898 0.163-2.898 0.163l-9.099-0.145c-2.482-2e-3 -4.381 0.046-5.698 0.142z"/>
	<path id="path44" d="m164.74 130.04 0.422-1.807c0.066-0.386 0.123-0.843 0.169-1.373l0.711-0.127 0.369 1.048c0.316 0.205 0.601 0.308 0.854 0.308 0.422 0 0.8-0.103 1.134-0.308 0.57-0.336 1.274-1.023 2.115-2.06 0.433-0.529 1.256-1.71 2.469-3.54-0.35-3.53-0.799-5.751-1.349-6.668-0.27-0.444-0.657-0.668-1.163-0.668-0.35 0-0.681 0.076-0.994 0.227-0.314 0.15-0.742 0.496-1.284 1.039l-0.491 0.469-0.633-0.379 2.304-3.089c0.323-0.218 0.664-0.377 1.024-0.479 0.36-0.103 0.738-0.153 1.136-0.153 1.181 0 2.048 0.536 2.603 1.607 0.411 0.795 0.698 2.481 0.86 5.06l2.158-3.054c0.642-0.879 1.32-1.655 2.037-2.331 0.528-0.505 1.007-0.852 1.437-1.039s0.825-0.279 1.187-0.279c0.373 0 0.743 0.102 1.107 0.307-0.249 0.976-0.481 2.023-0.7 3.144l-0.492 0.108c-0.166-0.325-0.328-0.541-0.485-0.649-0.158-0.108-0.37-0.163-0.635-0.163-0.397 0-0.781 0.097-1.151 0.289-0.506 0.277-1.068 0.759-1.689 1.445-0.405 0.446-1.261 1.548-2.567 3.307 0.301 2.469 0.529 4.101 0.687 4.896 0.269 1.289 0.604 2.156 1.005 2.602 0.254 0.277 0.549 0.416 0.886 0.416 0.338 0 0.693-0.1 1.07-0.299 0.376-0.199 0.989-0.665 1.842-1.399l0.386 0.65c-1.556 1.42-2.81 2.414-3.763 2.98-0.457 0.277-0.91 0.415-1.355 0.415-0.783 0-1.382-0.476-1.798-1.427-0.415-0.951-0.742-2.83-0.979-5.637-2.134 3.312-3.781 5.426-4.941 6.341-0.637 0.507-1.316 0.759-2.039 0.759-0.571-2e-3 -1.057-0.164-1.464-0.489z"/>
	<path id="path46" d="m196.4 125.86 0.235 0.795c-1.322 1.036-2.324 1.766-3.005 2.187-1.028 0.638-1.97 1.096-2.825 1.373-0.636 0.217-1.297 0.324-1.983 0.324-0.867 0-1.641-0.18-2.321-0.541s-1.189-0.964-1.528-1.807-0.479-1.885-0.425-3.126c0.059-1.324 0.294-2.688 0.708-4.092s0.923-2.571 1.528-3.504c0.604-0.935 1.201-1.636 1.787-2.105 1.199-0.963 2.621-1.789 4.265-2.476 0.847-0.361 1.681-0.541 2.5-0.541 0.614 0 1.177 0.078 1.688 0.233 0.511 0.157 0.976 0.398 1.395 0.724-0.396 1.349-0.742 2.903-1.037 4.661h-0.849l0.104-1.97c0.019-0.409-0.034-0.704-0.159-0.885-0.146-0.229-0.472-0.439-0.975-0.632s-1.099-0.289-1.785-0.289c-1.229 0-2.232 0.307-3.013 0.921-0.779 0.614-1.485 1.801-2.117 3.559-0.782 2.181-1.21 4.071-1.281 5.674-0.056 1.275 0.112 2.245 0.505 2.908 0.537 0.928 1.365 1.391 2.485 1.391 0.53 0 1.079-0.087 1.647-0.261 0.567-0.175 1.228-0.474 1.98-0.896 0.459-0.262 1.284-0.805 2.476-1.625z"/>
	<path id="path48" d="m210.47 125.99 0.204 0.704c-1.44 1.265-2.853 2.217-4.236 2.854-1.383 0.639-2.544 0.957-3.483 0.957-0.614 0-1.255-0.158-1.922-0.478-0.666-0.319-1.181-0.816-1.541-1.491-0.362-0.674-0.516-1.632-0.461-2.872 0.06-1.36 0.355-2.864 0.886-4.508 0.53-1.645 1.043-2.875 1.536-3.694 0.494-0.819 1.152-1.548 1.976-2.186 1.137-0.903 2.337-1.645 3.604-2.223 0.885-0.41 1.731-0.614 2.538-0.614 0.903 0 1.637 0.24 2.2 0.723 0.562 0.481 0.824 1.156 0.786 2.023-0.027 0.626-0.184 1.247-0.47 1.86-0.286 0.614-0.667 1.145-1.144 1.59-0.665 0.615-1.573 1.187-2.728 1.717-1.153 0.53-2.352 0.97-3.592 1.318l-2.37 0.561c-0.282 1.229-0.439 2.192-0.471 2.891-0.052 1.181 0.171 2.065 0.667 2.655 0.496 0.591 1.136 0.886 1.917 0.886 0.697 0 1.486-0.172 2.366-0.515 0.881-0.342 2.126-1.062 3.738-2.158zm-8.051-4.642c1.555-0.29 2.897-0.708 4.03-1.256 1.133-0.549 1.966-1.217 2.501-2.006 0.534-0.788 0.817-1.545 0.849-2.268 0.027-0.613-0.104-1.084-0.397-1.408-0.293-0.326-0.687-0.488-1.181-0.488-0.698 0-1.415 0.208-2.149 0.623-0.735 0.416-1.338 1.038-1.808 1.87-0.471 0.831-1.086 2.475-1.845 4.933z"/>
	<path id="path50" d="m220.9 126.12 0.274 0.74c-0.325 0.277-1.085 0.834-2.278 1.671-1.193 0.838-2.158 1.406-2.894 1.708-0.355 0.156-0.685 0.233-0.986 0.233-0.337 0-0.599-0.122-0.787-0.369s-0.27-0.636-0.246-1.166c0.02-0.445 0.081-0.885 0.184-1.318 0.153-0.723 0.842-3.354 2.066-7.896 0.878-3.251 1.436-5.377 1.673-6.377 0.59-2.445 1.02-4.414 1.291-5.907 0.062-0.325 0.101-0.645 0.114-0.958 0.016-0.337-0.056-0.575-0.212-0.714s-0.488-0.208-0.994-0.208l-1.661-0.018 0.123-0.741c1.162-0.12 2.176-0.288 3.039-0.505 0.865-0.218 1.807-0.53 2.824-0.939l0.457 0.288c-0.289 1.097-1.352 5.222-3.185 12.376-1.485 5.793-2.347 9.347-2.585 10.659-0.046 0.229-0.073 0.428-0.081 0.597-0.012 0.252 0.04 0.451 0.154 0.596s0.243 0.217 0.388 0.217c0.108 0 0.231-0.03 0.365-0.091 0.271-0.108 0.746-0.379 1.428-0.812z"/>
	<path id="path52" d="m231.18 126.12 0.274 0.74c-0.325 0.277-1.085 0.834-2.278 1.671-1.193 0.838-2.158 1.406-2.894 1.708-0.355 0.156-0.685 0.233-0.986 0.233-0.337 0-0.599-0.122-0.787-0.369s-0.27-0.636-0.246-1.166c0.02-0.445 0.081-0.885 0.184-1.318 0.153-0.723 0.842-3.354 2.066-7.896 0.878-3.251 1.436-5.377 1.673-6.377 0.59-2.445 1.02-4.414 1.291-5.907 0.062-0.325 0.101-0.645 0.114-0.958 0.016-0.337-0.056-0.575-0.212-0.714s-0.488-0.208-0.994-0.208l-1.661-0.018 0.123-0.741c1.162-0.12 2.176-0.288 3.039-0.505 0.865-0.218 1.807-0.53 2.824-0.939l0.457 0.288c-0.289 1.097-1.352 5.222-3.185 12.376-1.485 5.793-2.347 9.347-2.585 10.659-0.046 0.229-0.073 0.428-0.081 0.597-0.012 0.252 0.04 0.451 0.154 0.596s0.243 0.217 0.388 0.217c0.108 0 0.231-0.03 0.365-0.091 0.271-0.108 0.746-0.379 1.428-0.812z"/>
	<path id="path54" d="m245.42 125.99 0.204 0.704c-1.44 1.265-2.853 2.217-4.236 2.854-1.383 0.639-2.544 0.957-3.483 0.957-0.614 0-1.255-0.158-1.922-0.478-0.666-0.319-1.181-0.816-1.541-1.491-0.362-0.674-0.516-1.632-0.461-2.872 0.06-1.36 0.355-2.864 0.886-4.508 0.53-1.645 1.043-2.875 1.536-3.694 0.494-0.819 1.152-1.548 1.976-2.186 1.137-0.903 2.337-1.645 3.604-2.223 0.885-0.41 1.731-0.614 2.538-0.614 0.903 0 1.637 0.24 2.199 0.723 0.562 0.481 0.824 1.156 0.786 2.023-0.027 0.626-0.184 1.247-0.47 1.86-0.286 0.614-0.667 1.145-1.143 1.59-0.665 0.615-1.573 1.187-2.728 1.717-1.153 0.53-2.352 0.97-3.592 1.318l-2.37 0.561c-0.282 1.229-0.439 2.192-0.471 2.891-0.052 1.181 0.171 2.065 0.667 2.655 0.496 0.591 1.136 0.886 1.917 0.886 0.697 0 1.486-0.172 2.366-0.515 0.881-0.342 2.127-1.062 3.738-2.158zm-8.051-4.642c1.555-0.29 2.897-0.708 4.03-1.256 1.133-0.549 1.966-1.217 2.501-2.006 0.534-0.788 0.817-1.545 0.849-2.268 0.027-0.613-0.104-1.084-0.397-1.408-0.293-0.326-0.687-0.488-1.181-0.488-0.698 0-1.415 0.208-2.149 0.623-0.735 0.416-1.338 1.038-1.808 1.87-0.471 0.831-1.086 2.475-1.845 4.933z"/>
	<path id="path56" d="m249.64 130.38-0.222-0.308c0.933-2.554 1.82-5.602 2.663-9.142 0.609-2.602 0.931-4.307 0.966-5.113 0.012-0.265-0.021-0.448-0.102-0.551-0.079-0.102-0.198-0.153-0.354-0.153-0.145 0-0.296 0.024-0.455 0.072-0.306 0.108-0.687 0.296-1.145 0.56l-1.469 0.939-0.202-0.74 1.735-1.247c0.671-0.457 1.373-0.885 2.107-1.282 0.733-0.397 1.271-0.645 1.613-0.741 0.172-0.061 0.354-0.091 0.546-0.091 0.253 0 0.448 0.079 0.586 0.235 0.171 0.229 0.248 0.519 0.232 0.867-0.01 0.229-0.046 0.513-0.109 0.849-0.119 0.531-0.393 1.524-0.818 2.981l-0.961 3.343 0.125 0.036c1.123-1.71 2.401-3.226 3.832-4.543 1.432-1.319 2.915-2.322 4.451-3.009 1.105-0.494 1.924-0.741 2.453-0.741 0.325 0 0.583 0.103 0.772 0.308 0.19 0.205 0.276 0.5 0.259 0.885-0.037 0.831-0.541 2.854-1.515 6.07-1.31 4.288-1.981 6.812-2.015 7.57-0.011 0.24 0.027 0.412 0.112 0.515 0.087 0.103 0.201 0.154 0.346 0.154 0.181 0 0.475-0.103 0.881-0.308 0.852-0.47 1.639-0.976 2.361-1.518l0.275 0.723c-1.06 0.831-1.926 1.463-2.596 1.896-1.2 0.747-2.083 1.229-2.646 1.446-0.232 0.096-0.477 0.144-0.729 0.144-0.337 0-0.601-0.11-0.789-0.334-0.188-0.223-0.273-0.563-0.253-1.021 0.016-0.361 0.084-0.807 0.203-1.337 0.222-0.915 0.756-2.776 1.603-5.582 1.029-3.397 1.561-5.475 1.594-6.233 0.016-0.361-0.032-0.611-0.147-0.75-0.114-0.138-0.28-0.208-0.497-0.208-0.396 0-0.886 0.157-1.466 0.471-0.948 0.493-1.946 1.255-2.991 2.284-1.045 1.03-1.924 2.126-2.639 3.289-0.714 1.162-1.363 2.658-1.95 4.488-0.223 0.688-0.582 2.103-1.074 4.246-0.884 0.146-1.741 0.34-2.571 0.581z"/>
	<path id="path58" d="m281.4 125.86 0.235 0.795c-1.322 1.036-2.324 1.766-3.005 2.187-1.028 0.638-1.97 1.096-2.825 1.373-0.636 0.217-1.297 0.324-1.983 0.324-0.867 0-1.641-0.18-2.321-0.541s-1.189-0.964-1.528-1.807-0.479-1.885-0.425-3.126c0.059-1.324 0.294-2.688 0.708-4.092 0.413-1.403 0.923-2.571 1.528-3.504 0.604-0.935 1.201-1.636 1.787-2.105 1.199-0.963 2.621-1.789 4.265-2.476 0.847-0.361 1.681-0.541 2.5-0.541 0.614 0 1.177 0.078 1.688 0.233 0.511 0.157 0.976 0.398 1.395 0.724-0.396 1.349-0.742 2.903-1.037 4.661h-0.849l0.104-1.97c0.019-0.409-0.034-0.704-0.159-0.885-0.146-0.229-0.472-0.439-0.975-0.632s-1.099-0.289-1.785-0.289c-1.229 0-2.232 0.307-3.013 0.921-0.779 0.614-1.485 1.801-2.117 3.559-0.782 2.181-1.21 4.071-1.281 5.674-0.056 1.275 0.112 2.245 0.505 2.908 0.537 0.928 1.365 1.391 2.485 1.391 0.53 0 1.079-0.087 1.647-0.261 0.566-0.175 1.228-0.474 1.98-0.896 0.459-0.262 1.284-0.805 2.476-1.625z"/>
	<path id="path60" d="m295.46 125.99 0.204 0.704c-1.44 1.265-2.853 2.217-4.236 2.854-1.383 0.639-2.544 0.957-3.483 0.957-0.614 0-1.255-0.158-1.922-0.478-0.666-0.319-1.181-0.816-1.541-1.491-0.362-0.674-0.516-1.632-0.461-2.872 0.06-1.36 0.355-2.864 0.886-4.508 0.53-1.645 1.043-2.875 1.536-3.694 0.494-0.819 1.152-1.548 1.976-2.186 1.137-0.903 2.337-1.645 3.604-2.223 0.885-0.41 1.731-0.614 2.538-0.614 0.903 0 1.637 0.24 2.2 0.723 0.562 0.481 0.824 1.156 0.786 2.023-0.027 0.626-0.184 1.247-0.47 1.86-0.286 0.614-0.667 1.145-1.144 1.59-0.665 0.615-1.573 1.187-2.728 1.717-1.153 0.53-2.352 0.97-3.593 1.318l-2.369 0.561c-0.282 1.229-0.439 2.192-0.471 2.891-0.052 1.181 0.171 2.065 0.667 2.655 0.496 0.591 1.136 0.886 1.917 0.886 0.697 0 1.486-0.172 2.366-0.515 0.881-0.342 2.127-1.062 3.738-2.158zm-8.051-4.642c1.555-0.29 2.897-0.708 4.03-1.256 1.133-0.549 1.966-1.217 2.501-2.006 0.534-0.788 0.817-1.545 0.85-2.268 0.026-0.613-0.105-1.084-0.398-1.408-0.293-0.326-0.687-0.488-1.181-0.488-0.698 0-1.415 0.208-2.149 0.623-0.735 0.416-1.338 1.038-1.808 1.87-0.471 0.831-1.086 2.475-1.845 4.933z"/>
</g>
</svg>
