<?xml version="1.0" encoding="UTF-8"?>
<!-- Generator: Adobe Illustrator 16.0.4, SVG Export Plug-In . SVG Version: 6.00 Build 0)  -->
<svg id="Layer_1" width="161.2" height="161.19" enable-background="new 0 0 288 288" version="1.1" viewBox="0 0 161.2 161.19" xml:space="preserve" xmlns="http://www.w3.org/2000/svg" xmlns:cc="http://creativecommons.org/ns#" xmlns:dc="http://purl.org/dc/elements/1.1/" xmlns:rdf="http://www.w3.org/1999/02/22-rdf-syntax-ns#"><metadata id="metadata15"><rdf:RDF><cc:Work rdf:about=""><dc:format>image/svg+xml</dc:format><dc:type rdf:resource="http://purl.org/dc/dcmitype/StillImage"/><dc:title/></cc:Work></rdf:RDF></metadata>
<g id="g8" transform="translate(-61.715 -58.142)">
	<ellipse id="ellipse2" cx="142.32" cy="138.74" rx="80.602" ry="80.597" fill="#58595b"/>
	<g id="g6">
		<path id="path4" d="m105.49 122.22c0.02 4.736 0.112 9.501 0.138 14.259 7e-3 5.121 0.02 10.244 0.02 15.367 0 28.675 26.328 36.809 31.375 36.809 5.052 0 24.835 0.458 28.405 0.458 3.58 0 13.826-0.938 13.826-11.202 0-10.271-7.272-12.305-12.181-12.305h-19.642c-13.974 0-16.204-7.772-16.204-13.445 0-2.695 0.17-7.976 0.338-13.42h32.817c4.918 0 14.273-1.154 14.273-10.05 0-8.887-4.316-13.456-10.111-13.456h-36.57c-0.039-12.825-0.882-26.865-13.534-26.865-5.234 0-9.481 2.128-11.269 7.415-2.351 6.942-1.728 15.073-1.702 22.303 0.014 1.374 0.021 2.755 0.021 4.132z" fill="#fff"/>
	</g>
</g>
</svg>
