<?xml version="1.0" standalone="no"?>
<!DOCTYPE svg PUBLIC "-//W3C//DTD SVG 20010904//EN"
 "http://www.w3.org/TR/2001/REC-SVG-20010904/DTD/svg10.dtd">
<svg version="1.0" xmlns="http://www.w3.org/2000/svg"
 width="602.000000pt" height="602.000000pt" viewBox="0 0 602.000000 602.000000"
 preserveAspectRatio="xMidYMid meet">
<metadata>
Created by potrace 1.11, written by Peter Selinger 2001-2013
</metadata>
<g transform="translate(0.000000,602.000000) scale(0.100000,-0.100000)"
fill="#000000" stroke="none">
<path d="M1988 5464 c-116 -15 -163 -27 -247 -66 -223 -102 -419 -333 -466
-548 -2 -8 -15 -62 -29 -120 -15 -58 -28 -116 -31 -130 -2 -14 -18 -81 -35
-150 -18 -69 -33 -134 -34 -145 -2 -11 -6 -27 -9 -35 -3 -8 -15 -60 -28 -115
-13 -55 -24 -104 -25 -110 -3 -9 -6 -26 -18 -80 -3 -11 -19 -78 -36 -150 -17
-71 -33 -138 -35 -148 -2 -10 -6 -26 -9 -35 -3 -9 -7 -28 -10 -42 -8 -42 -13
-62 -55 -232 -22 -90 -42 -177 -45 -193 -2 -17 -5 -30 -6 -30 -1 0 -3 -7 -5
-15 -1 -8 -10 -42 -18 -75 -9 -33 -17 -71 -19 -85 l-3 -25 698 0 c626 0 725 2
716 16 -1 2 5 36 15 74 9 39 18 79 21 90 2 11 14 58 25 105 12 47 24 96 26
109 3 14 7 28 9 31 2 4 7 20 9 36 10 52 15 75 21 94 3 10 8 27 10 37 2 10 22
94 44 186 23 92 43 178 45 190 3 12 5 22 7 22 1 0 3 9 4 20 2 11 10 48 20 82
9 35 18 71 20 80 1 10 10 45 18 78 9 33 18 71 21 85 3 14 21 95 41 180 19 85
37 170 40 187 2 18 7 48 10 65 14 75 19 207 12 263 -14 99 -20 123 -39 169
-20 47 -88 157 -112 181 -63 63 -170 123 -251 141 -63 15 -183 18 -267 8z"/>
<path d="M3598 5475 c-2 -2 -34 -6 -73 -9 -83 -7 -100 -10 -174 -32 -113 -32
-254 -118 -345 -211 -50 -50 -151 -183 -140 -183 4 0 0 -8 -8 -17 -26 -31 -68
-147 -84 -228 -4 -20 -10 -50 -18 -82 -17 -72 -62 -258 -86 -358 -16 -66 -31
-133 -34 -150 -3 -16 -23 -104 -45 -195 -23 -91 -43 -174 -45 -185 -4 -20 -47
-203 -66 -280 -55 -225 -140 -589 -140 -598 0 -9 168 -12 702 -12 l702 0 12
45 c14 51 135 553 138 572 1 7 5 22 9 33 3 11 8 31 11 45 7 36 11 52 46 195
17 72 33 137 35 145 2 8 10 42 18 75 9 33 18 71 21 85 3 14 17 71 31 128 13
56 27 112 29 125 2 12 9 40 14 62 6 22 13 51 16 65 2 14 11 63 21 110 38 198
38 371 1 475 -54 149 -148 262 -265 319 -74 36 -107 45 -191 52 -30 3 -63 7
-72 8 -9 2 -18 3 -20 1z"/>
<path d="M5009 5465 c-2 -2 -24 -6 -49 -10 -112 -17 -251 -82 -355 -166 -163
-133 -249 -269 -298 -469 -38 -154 -71 -291 -122 -510 -25 -107 -50 -213 -55
-235 -6 -22 -13 -51 -16 -65 -3 -13 -21 -90 -40 -170 -20 -80 -37 -152 -39
-160 -2 -8 -15 -67 -30 -130 -43 -180 -43 -182 -54 -233 -6 -27 -13 -51 -15
-55 -2 -4 -7 -23 -10 -42 -3 -19 -10 -50 -16 -69 -5 -19 -8 -37 -5 -39 3 -3 1
-10 -4 -16 -5 -6 -12 -24 -15 -41 -3 -16 -10 -48 -15 -70 -6 -22 -11 -42 -11
-45 0 -4 1384 -5 1414 -1 5 0 7 4 4 7 -3 3 -2 21 4 41 5 19 11 43 13 52 2 9
15 66 30 126 14 61 28 117 30 125 1 8 8 35 15 60 7 25 14 56 17 69 2 14 6 28
8 31 2 4 7 22 10 41 3 19 17 79 31 134 13 55 26 109 29 120 2 11 17 76 34 145
32 128 41 166 42 175 0 2 5 19 10 37 6 18 12 42 14 53 2 11 11 49 20 85 9 36
19 76 21 90 3 14 9 41 14 60 5 19 11 46 14 60 2 14 7 32 10 40 3 8 8 32 11 54
3 21 7 41 9 45 2 3 7 30 11 58 3 29 10 65 14 80 8 31 7 276 -2 309 -22 82 -32
111 -44 125 -7 8 -13 18 -13 22 0 3 -12 26 -28 50 -105 166 -246 235 -475 236
-63 0 -117 -2 -118 -4z"/>
<path d="M791 2747 c-18 -85 -20 -92 -67 -286 -100 -411 -103 -424 -110 -461
-3 -14 -12 -50 -20 -81 -7 -31 -14 -61 -14 -65 0 -9 327 -11 336 -2 4 5 46
189 60 268 10 55 52 235 54 230 1 -3 3 -27 5 -55 2 -27 6 -77 9 -110 3 -33 8
-87 10 -120 10 -120 18 -210 21 -215 3 -4 118 -5 175 -1 8 1 27 22 41 49 43
77 208 355 217 364 9 9 -15 -96 -68 -304 -23 -94 -25 -108 -11 -109 75 -5 314
-2 318 3 2 5 6 16 8 25 1 10 11 47 20 83 9 36 18 72 20 80 2 8 10 42 18 75 9
33 18 71 21 85 2 14 7 32 10 40 3 8 8 26 10 40 3 14 19 81 36 150 17 69 33
132 35 140 2 8 13 53 25 100 12 47 24 95 27 107 l5 22 -222 -2 -222 -2 -24
-40 c-13 -22 -27 -47 -31 -55 -20 -44 -197 -359 -200 -356 -2 2 -5 39 -8 82
-10 192 -16 290 -20 309 -2 11 -4 30 -4 43 l-1 22 -224 -1 -224 -1 -11 -51z"/>
<path d="M2071 2767 c-9 -28 -18 -65 -46 -197 -3 -14 -8 -33 -11 -42 -3 -10
-7 -30 -10 -45 -3 -16 -11 -53 -19 -83 -8 -30 -35 -145 -60 -255 -26 -110 -48
-208 -51 -217 -2 -10 -6 -27 -8 -38 -3 -11 -8 -25 -11 -30 -8 -13 -37 -12 403
-13 364 -2 372 -2 379 18 7 23 42 159 49 192 4 21 1 22 -78 22 -46 0 -142 1
-215 1 l-132 1 9 25 c5 13 8 24 5 24 -2 0 1 14 6 30 l11 30 203 0 c112 0 206
4 209 8 3 5 7 19 10 33 7 36 26 122 31 139 4 14 -20 16 -193 15 -108 0 -202 1
-209 3 -9 3 -11 29 -3 40 3 2 4 6 13 55 l8 38 147 -1 c297 -2 298 -2 299 18 1
10 11 56 22 103 11 46 22 93 23 104 2 11 7 25 11 32 4 6 4 14 -1 17 -5 3 -182
5 -394 5 l-387 1 -10 -33z"/>
<path d="M2965 2788 c-2 -7 -13 -53 -25 -103 -12 -49 -28 -119 -36 -154 -9
-36 -17 -72 -19 -80 -2 -9 -19 -81 -39 -161 -19 -80 -37 -156 -40 -170 -2 -14
-7 -32 -10 -40 -3 -8 -7 -26 -10 -40 -2 -14 -9 -45 -16 -70 -7 -25 -14 -53
-16 -63 -2 -10 -6 -27 -9 -38 -4 -10 -3 -19 2 -20 33 -4 363 -3 364 1 0 3 2
12 4 20 2 8 6 31 10 50 15 84 45 224 49 228 3 2 9 -11 14 -30 6 -18 23 -64 37
-103 15 -38 34 -91 43 -117 11 -33 21 -47 36 -50 18 -3 299 -2 363 1 16 1 20
6 16 21 -3 11 -9 20 -14 20 -5 0 -8 3 -7 8 1 4 -33 76 -75 160 -47 95 -71 154
-64 156 7 2 39 9 72 16 33 7 69 17 80 23 11 6 23 11 26 12 15 1 79 66 95 97
41 78 51 218 21 288 -29 68 -72 102 -169 129 -55 16 -106 19 -371 20 -239 1
-308 -2 -312 -11z m475 -300 c11 -12 20 -35 20 -50 0 -39 -24 -94 -47 -106
-18 -10 -78 -15 -154 -13 l-37 1 14 63 c8 34 17 77 20 95 l7 32 78 0 c68 0 81
-3 99 -22z"/>
<path d="M3987 2727 c-9 -39 -19 -81 -21 -92 -3 -11 -12 -48 -21 -82 -9 -35
-18 -71 -20 -80 -1 -10 -8 -36 -14 -58 -6 -22 -12 -49 -14 -60 -2 -11 -9 -38
-15 -60 -6 -22 -13 -51 -16 -65 -3 -14 -12 -54 -21 -90 -9 -36 -19 -76 -21
-90 -3 -14 -13 -54 -22 -90 -10 -36 -18 -76 -17 -90 l0 -24 160 -1 c88 0 167
1 176 3 11 3 26 47 53 165 21 89 45 187 53 217 8 30 16 62 18 71 2 9 15 65 30
125 14 60 28 118 31 129 2 11 12 56 23 100 11 44 22 95 26 113 l7 32 -179 0
-178 0 -18 -73z"/>
<path d="M4424 2767 c-4 -18 -9 -36 -10 -42 -2 -5 -5 -19 -7 -30 -3 -11 -15
-58 -27 -105 -12 -47 -24 -97 -26 -111 l-5 -27 102 2 c55 0 104 -1 108 -4 4
-3 -10 -84 -31 -180 -21 -96 -40 -186 -42 -200 -2 -14 -14 -69 -26 -124 -15
-64 -19 -100 -12 -105 8 -5 215 -6 319 -2 18 1 24 10 34 59 7 31 13 59 14 62
2 6 28 122 31 135 4 22 55 241 58 250 2 6 6 31 11 58 8 53 -12 47 169 50 l90
2 8 30 c4 16 9 41 12 55 2 14 9 45 16 70 7 25 14 54 16 65 2 11 6 29 8 40 3
11 8 34 11 51 l7 30 -410 2 -411 1 -7 -32z"/>
<path d="M514 1705 c-4 -11 -84 -339 -89 -365 -2 -8 -22 -91 -45 -185 -23 -93
-44 -183 -47 -200 -3 -16 -9 -38 -14 -47 -5 -10 -8 -18 -5 -18 2 0 -2 -24 -10
-52 -7 -29 -14 -56 -14 -60 0 -5 317 -8 704 -8 l704 0 33 138 c18 75 34 142
35 147 1 6 10 39 19 75 9 36 18 76 21 90 3 14 30 128 61 253 30 125 53 230 51
233 -10 10 -1401 9 -1404 -1z"/>
<path d="M2083 1712 c-24 -2 -43 -6 -44 -10 -1 -15 -7 -39 -24 -102 -25 -97
-26 -103 -31 -133 -2 -15 -8 -35 -13 -45 -5 -9 -9 -20 -9 -25 0 -4 -3 -20 -6
-35 -4 -15 -8 -36 -11 -47 -2 -11 -8 -35 -14 -53 -5 -18 -10 -35 -10 -37 -1
-3 -1 -6 -2 -7 0 -2 -2 -12 -4 -22 -2 -11 -13 -54 -24 -95 -11 -42 -22 -87
-25 -101 -3 -14 -13 -59 -24 -100 -11 -41 -23 -87 -26 -102 l-6 -28 708 0 708
0 17 73 c10 39 19 81 21 92 3 11 21 88 41 170 20 83 47 200 60 260 14 61 34
151 45 200 33 144 33 145 13 145 -382 3 -1310 4 -1340 2z"/>
<path d="M3555 1700 c-6 -20 -59 -248 -69 -295 -2 -11 -16 -67 -30 -125 -15
-58 -28 -114 -30 -125 -3 -11 -12 -51 -21 -90 -9 -38 -18 -77 -20 -85 -2 -8
-4 -15 -5 -15 -1 0 -3 -11 -6 -25 -2 -14 -11 -51 -19 -83 -8 -32 -15 -65 -15
-73 0 -12 102 -14 700 -14 656 0 700 1 709 18 5 9 9 20 9 25 1 4 6 33 13 65 6
31 12 62 13 67 1 6 5 16 9 23 5 6 6 12 4 12 -2 0 2 26 10 58 7 31 16 66 18 77
3 11 7 30 10 43 3 12 7 30 10 40 10 39 27 109 31 132 3 14 10 43 15 65 5 22
12 51 15 65 36 170 40 188 49 223 l7 27 -93 0 c-1253 6 -1309 5 -1314 -10z"/>
</g>
</svg>
